<mxfile host="app.diagrams.net" modified="2022-11-01T19:31:30.223Z" agent="5.0 (Windows NT 10.0; Win64; x64) AppleWebKit/537.36 (KHTML, like Gecko) Chrome/106.0.0.0 Safari/537.36" etag="4bdHMlz_dm3bB9FXwCAo" version="20.5.1" type="github">
  <diagram id="R2lEEEUBdFMjLlhIrx00" name="Page-1">
    <mxGraphModel dx="976" dy="587" grid="1" gridSize="10" guides="1" tooltips="1" connect="1" arrows="1" fold="1" page="1" pageScale="1" pageWidth="850" pageHeight="1100" math="0" shadow="0" extFonts="Permanent Marker^https://fonts.googleapis.com/css?family=Permanent+Marker">
      <root>
        <mxCell id="0" />
        <mxCell id="1" parent="0" />
        <mxCell id="IxM9NzoJqfe1PZrLa2U9-1" value="Trenes" style="whiteSpace=wrap;html=1;align=center;" vertex="1" parent="1">
          <mxGeometry x="155" y="150" width="100" height="40" as="geometry" />
        </mxCell>
        <mxCell id="IxM9NzoJqfe1PZrLa2U9-2" value="Líneas" style="whiteSpace=wrap;html=1;align=center;" vertex="1" parent="1">
          <mxGeometry x="365" y="150" width="100" height="40" as="geometry" />
        </mxCell>
        <mxCell id="IxM9NzoJqfe1PZrLa2U9-3" value="Estaciones" style="shape=ext;margin=3;double=1;whiteSpace=wrap;html=1;align=center;" vertex="1" parent="1">
          <mxGeometry x="365" y="300" width="100" height="40" as="geometry" />
        </mxCell>
        <mxCell id="IxM9NzoJqfe1PZrLa2U9-4" value="Ubicaciones" style="shape=ext;margin=3;double=1;whiteSpace=wrap;html=1;align=center;" vertex="1" parent="1">
          <mxGeometry x="595" y="300" width="100" height="40" as="geometry" />
        </mxCell>
        <mxCell id="IxM9NzoJqfe1PZrLa2U9-5" value="" style="endArrow=none;html=1;rounded=0;entryX=0;entryY=0.5;entryDx=0;entryDy=0;startArrow=none;" edge="1" parent="1" source="IxM9NzoJqfe1PZrLa2U9-10" target="IxM9NzoJqfe1PZrLa2U9-2">
          <mxGeometry relative="1" as="geometry">
            <mxPoint x="255" y="169.5" as="sourcePoint" />
            <mxPoint x="355" y="170" as="targetPoint" />
          </mxGeometry>
        </mxCell>
        <mxCell id="IxM9NzoJqfe1PZrLa2U9-6" value="" style="endArrow=none;html=1;rounded=0;" edge="1" parent="1">
          <mxGeometry relative="1" as="geometry">
            <mxPoint x="465" y="320" as="sourcePoint" />
            <mxPoint x="595" y="320" as="targetPoint" />
          </mxGeometry>
        </mxCell>
        <mxCell id="IxM9NzoJqfe1PZrLa2U9-7" value="" style="endArrow=none;html=1;rounded=0;exitX=0.5;exitY=0;exitDx=0;exitDy=0;entryX=0.5;entryY=1;entryDx=0;entryDy=0;" edge="1" parent="1" source="IxM9NzoJqfe1PZrLa2U9-3" target="IxM9NzoJqfe1PZrLa2U9-2">
          <mxGeometry relative="1" as="geometry">
            <mxPoint x="385" y="230" as="sourcePoint" />
            <mxPoint x="545" y="230" as="targetPoint" />
          </mxGeometry>
        </mxCell>
        <mxCell id="IxM9NzoJqfe1PZrLa2U9-8" value="Conductores" style="whiteSpace=wrap;html=1;align=center;" vertex="1" parent="1">
          <mxGeometry x="155" y="280" width="100" height="40" as="geometry" />
        </mxCell>
        <mxCell id="IxM9NzoJqfe1PZrLa2U9-9" value="está" style="shape=rhombus;perimeter=rhombusPerimeter;whiteSpace=wrap;html=1;align=center;" vertex="1" parent="1">
          <mxGeometry x="495" y="295" width="70" height="50" as="geometry" />
        </mxCell>
        <mxCell id="IxM9NzoJqfe1PZrLa2U9-10" value="está" style="shape=rhombus;perimeter=rhombusPerimeter;whiteSpace=wrap;html=1;align=center;" vertex="1" parent="1">
          <mxGeometry x="275" y="145" width="70" height="50" as="geometry" />
        </mxCell>
        <mxCell id="IxM9NzoJqfe1PZrLa2U9-11" value="" style="endArrow=none;html=1;rounded=0;entryX=0;entryY=0.5;entryDx=0;entryDy=0;" edge="1" parent="1" target="IxM9NzoJqfe1PZrLa2U9-10">
          <mxGeometry relative="1" as="geometry">
            <mxPoint x="255" y="169.5" as="sourcePoint" />
            <mxPoint x="365" y="170" as="targetPoint" />
          </mxGeometry>
        </mxCell>
        <mxCell id="IxM9NzoJqfe1PZrLa2U9-12" value="tiene" style="shape=rhombus;perimeter=rhombusPerimeter;whiteSpace=wrap;html=1;align=center;" vertex="1" parent="1">
          <mxGeometry x="380" y="220" width="70" height="50" as="geometry" />
        </mxCell>
        <mxCell id="IxM9NzoJqfe1PZrLa2U9-13" value="N:1" style="text;strokeColor=none;fillColor=none;spacingLeft=4;spacingRight=4;overflow=hidden;rotatable=0;points=[[0,0.5],[1,0.5]];portConstraint=eastwest;fontSize=12;fontStyle=1" vertex="1" parent="1">
          <mxGeometry x="315" y="130" width="40" height="30" as="geometry" />
        </mxCell>
        <mxCell id="IxM9NzoJqfe1PZrLa2U9-14" value="1:1" style="text;strokeColor=none;fillColor=none;spacingLeft=4;spacingRight=4;overflow=hidden;rotatable=0;points=[[0,0.5],[1,0.5]];portConstraint=eastwest;fontSize=12;fontStyle=1" vertex="1" parent="1">
          <mxGeometry x="535" y="280" width="40" height="30" as="geometry" />
        </mxCell>
        <mxCell id="IxM9NzoJqfe1PZrLa2U9-15" value="N:N" style="text;strokeColor=none;fillColor=none;spacingLeft=4;spacingRight=4;overflow=hidden;rotatable=0;points=[[0,0.5],[1,0.5]];portConstraint=eastwest;fontSize=12;fontStyle=1" vertex="1" parent="1">
          <mxGeometry x="425" y="210" width="40" height="30" as="geometry" />
        </mxCell>
      </root>
    </mxGraphModel>
  </diagram>
</mxfile>
